<?xml version="1.0" encoding="UTF-8" standalone="no"?>
<!-- Created with Inkscape (http://www.inkscape.org/) -->

<svg
   version="1.1"
   id="svg113"
   width="340"
   height="264"
   viewBox="0 0 340 264"
   xmlns="http://www.w3.org/2000/svg"
   xmlns:svg="http://www.w3.org/2000/svg">
  <defs
     id="defs117" />
  <g
     id="g119">
    <g
       id="g4475"
       transform="translate(-553.58982,-30.629126)">
      <path
         style="fill:#fed32d;stroke-width:1.33333"
         d="m -941.1186,-351.848 c -1.66342,-1.66342 -0.8939,-6.57134 3.63503,-23.18375 8.85576,-32.48349 15.41146,-56.78293 18.86557,-69.92736 1.92707,-7.33333 4.44577,-14.38333 5.59712,-15.66667 1.91529,-2.13485 5.92433,-2.33333 47.13019,-2.33333 51.83688,0 48.04379,-1.18342 43.98903,13.72435 -2.6591,9.77649 -5.71815,14.27565 -9.70623,14.27565 -2.18604,0 -2.39921,-0.66335 -1.60674,-5 0.50254,-2.75 1.44262,-6.42298 2.08908,-8.16218 2.44653,-6.582 1.04335,-6.83782 -37.50521,-6.83782 -32.28378,0 -35.81765,0.21914 -37.62707,2.33333 -1.09833,1.28334 -4.43113,11.33334 -7.40621,22.33334 -2.97508,11 -8.22187,30.38064 -11.65953,43.06809 -3.43766,12.68745 -5.91669,23.93745 -5.50895,25 0.62256,1.62236 6.56957,1.92864 37.11652,1.91149 20.00635,-0.0107 37.05569,-0.46122 37.88742,-1 0.83173,-0.53877 2.56079,-4.72958 3.84236,-9.31292 1.99749,-7.14369 2.76968,-8.33333 5.40908,-8.33333 4.64167,0 5.0333,1.92715 2.52161,12.40857 -3.98859,16.64464 -0.47852,15.59143 -51.96215,15.59143 -24.31662,0 -44.61203,-0.4 -45.10092,-0.88889 z m 104.44445,-0.31962 c 0,-0.66468 1.2,-0.8947 2.66666,-0.51116 3.42524,0.89572 3.44848,-1.15062 0.0373,-3.28097 -4.67355,-2.91868 0.29191,-8.50159 5.07733,-5.70869 1.82367,1.06433 1.56585,1.30213 -1.44792,1.33545 -3.07817,0.034 -5.65197,2.66668 -2.66667,2.72763 2.46411,0.0503 4.3498,2.38525 3.56918,4.41952 -0.87844,2.28916 -7.23584,3.18377 -7.23584,1.01822 z m 13.61168,-2.12482 c 0.0912,-2.2 -0.28311,-5.2 -0.83178,-6.66667 -0.9778,-2.61376 -0.95617,-2.61589 1.09004,-0.10747 1.95576,2.39751 2.24302,2.41856 4.54717,0.33334 4.01014,-3.62912 5.03318,-2.5325 1.34414,1.44082 -1.87238,2.01667 -4.05932,4.86667 -4.85986,6.33334 -1.30989,2.39985 -1.43893,2.26645 -1.28971,-1.33334 z m 8.50736,2.19261 c -0.38776,-0.6274 0.77683,-0.85745 2.58797,-0.51124 3.69256,0.70588 4.46101,-1.56188 1.156,-3.41145 -1.17535,-0.65776 -1.91845,-2.33068 -1.65136,-3.71762 0.581,-3.01689 4.79173,-4.12838 6.92997,-1.82929 1.18268,1.27165 0.8709,1.48247 -1.38885,0.93905 -3.29671,-0.79277 -5.38216,2.34987 -2.33525,3.51908 3.38912,1.30052 2.3333,6.15219 -1.33883,6.15219 -1.79006,0 -3.5719,-0.51332 -3.95965,-1.14072 z m 12.54762,0.56085 c 0,-0.31893 0.62326,-2.21914 1.385,-4.2227 1.0439,-2.74564 0.9618,-3.91136 -0.33333,-4.73306 -1.06329,-0.67461 0.0607,-1.03902 2.94833,-0.95596 2.56667,0.0739 3.67739,0.39696 2.46826,0.71804 -1.25379,0.33294 -2.5688,2.55814 -3.06042,5.17867 -0.4741,2.52719 -1.43482,4.59488 -2.13492,4.59488 -0.7001,0 -1.27292,-0.26095 -1.27292,-0.57987 z m 8.47103,-1.75346 c 2.34541,-8.41014 2.28633,-8.33752 6.61883,-8.13356 4.0317,0.18981 4.06049,0.22749 0.57681,0.75522 -4.40652,0.66754 -4.89387,2.99063 -0.66667,3.17791 2.9209,0.12933 2.91471,0.15675 -0.23448,1.03677 -4.62184,1.29158 -4.91285,3.87267 -0.51124,4.53435 3.05332,0.459 2.80484,0.60001 -1.34413,0.76287 -4.25487,0.167 -4.98309,-0.183 -4.43912,-2.13356 z m 11.53641,1.33333 c 0.0208,-2.79341 2.93018,-11 3.89972,-11 0.61334,0 1.45938,1.31631 1.8801,2.92512 0.74817,2.86105 0.82477,2.87096 3.49701,0.45261 1.50264,-1.35986 3.06709,-2.13748 3.47655,-1.72802 1.19053,1.19053 -0.92199,10.35029 -2.38708,10.35029 -0.78135,0 -0.95382,-1.49683 -0.41831,-3.63047 0.90377,-3.6009 0.88867,-3.61006 -1.85545,-1.12668 -2.4547,2.22148 -2.76664,2.25498 -2.76664,0.29714 0,-1.21367 -0.6,-2.20666 -1.33334,-2.20666 -0.73333,0 -1.33333,1.5 -1.33333,3.33334 0,1.83333 -0.6,3.33333 -1.33333,3.33333 -0.73334,0 -1.32999,-0.45 -1.3259,-1 z m 14.65923,-0.35873 c 0,-0.78354 1.41113,-1.00456 3.33333,-0.52212 4.03947,1.01384 4.38728,-1.0887 0.59936,-3.62319 -2.44368,-1.63507 -2.53065,-2.10589 -0.81914,-4.43441 1.63313,-2.2219 2.37857,-2.37138 5.0673,-1.01614 l 3.15248,1.589 -3.2094,-0.31721 c -3.92916,-0.38833 -5.25728,2.40875 -1.59806,3.36564 4.32021,1.12977 2.11838,6.31716 -2.68138,6.31716 -2.11446,0 -3.84449,-0.61143 -3.84449,-1.35873 z m 18.22223,0.46984 c -1.44874,-1.44872 -1.01358,-6.4531 0.7111,-8.17778 1.77782,-1.77781 7.73334,-2.19941 7.73334,-0.54744 0,0.57891 -1.65,1.02891 -3.66667,1 -3.06536,-0.044 -3.73864,0.57755 -4.10551,3.78971 -0.39724,3.47797 -0.11666,3.78068 2.95966,3.19261 1.86916,-0.35732 3.08124,-0.13633 2.69348,0.49107 -0.83539,1.35167 -5.05747,1.51977 -6.3254,0.25183 z m 11.41506,-4.44444 c 1.23539,-4.86703 1.71843,-5.31587 5.5249,-5.13356 4.02988,0.19301 4.04696,0.21858 0.50448,0.75522 -4.42896,0.67094 -4.8107,2.63919 -0.66667,3.43736 2.5722,0.49543 2.47712,0.60372 -0.66667,0.7594 -2.21042,0.10947 -3.66666,0.94072 -3.66666,2.09302 0,1.06165 1.6301,2.15837 3.66666,2.46689 3.03956,0.46045 2.83578,0.58961 -1.19156,0.75523 l -4.85822,0.19977 z m 10.78074,3.16697 c 0.38704,-1.37517 1.09176,-3.85031 1.56602,-5.50031 1.14674,-3.9895 2.56326,-3.78401 4.59547,0.66667 l 1.67421,3.66667 1.85647,-4 1.85648,-4 -0.79048,4.66666 c -1.09947,6.49083 -2.74464,7.73932 -4.65972,3.53618 -1.89028,-4.14872 -3.84981,-4.63135 -3.84981,-0.9482 0,1.42338 -0.66428,2.99853 -1.47618,3.5003 -0.95237,0.5886 -1.22648,0.0251 -0.77246,-1.58797 z m 15.83908,0.71841 c 2.45378,-6.51337 2.47232,-7.681 0.1316,-8.28894 -1.31382,-0.34124 0.0107,-0.62044 2.94457,-0.62044 2.93333,0 4.32303,0.26676 3.0882,0.59278 -1.23483,0.32603 -2.63099,2.34955 -3.10259,4.49671 -0.47158,2.14716 -1.51324,4.30924 -2.31478,4.80461 -0.87886,0.54316 -1.17539,0.1523 -0.74706,-0.98472 z m 8.2726,-0.67592 c 0.44825,-1.16813 1.17748,-3.56813 1.62052,-5.33333 0.65278,-2.60088 1.59982,-3.17159 4.99432,-3.00969 4.03037,0.19222 4.05012,0.22078 0.52212,0.75522 -4.42896,0.67094 -4.8107,2.63919 -0.66667,3.43736 2.5722,0.49543 2.47712,0.60372 -0.66667,0.7594 -2.21042,0.10947 -3.66666,0.94072 -3.66666,2.09302 0,1.06165 1.6301,2.15837 3.66666,2.46689 2.86268,0.43365 2.53904,0.59925 -1.47598,0.75523 -4.20078,0.16318 -4.99339,-0.18922 -4.32764,-1.9241 z m 12.23093,-1.87613 c 1.20461,-6.34277 1.49537,-6.66667 5.98472,-6.66667 3.95641,0 5.46367,2.88939 2.47181,4.73846 -0.79721,0.4927 -1.15338,2.02812 -0.79149,3.41202 0.82407,3.15123 -0.26859,3.23022 -2.52959,0.18286 -1.63502,-2.20368 -1.85041,-2.18516 -3.87648,0.33333 -2.04776,2.54547 -2.10498,2.45456 -1.25897,-2 z m 8.28343,-3.77887 c 0.39836,-1.20866 -0.38944,-1.63605 -2.45779,-1.33333 -1.67424,0.24504 -3.30789,1.24603 -3.63035,2.2244 -0.39836,1.20867 0.38944,1.63605 2.45779,1.33333 1.67424,-0.24504 3.30789,-1.24602 3.63035,-2.2244 z m -149.42532,-10.38016 c -3.58863,-3.58864 2.07199,-10.3514 7.93,-9.47402 3.70666,0.55516 3.69632,0.57094 -0.50184,0.76661 -7.23062,0.33699 -9.43759,8.19977 -2.30155,8.19977 3.42333,0 4.42756,-1.97116 1.58797,-3.11696 -0.96019,-0.38745 -0.63616,-0.71713 0.76444,-0.77777 1.62164,-0.0703 2.28392,0.67164 1.98908,2.22807 -0.4545,2.39922 -7.60183,4.04057 -9.4681,2.1743 z m 12.4218,0.0247 c -0.0223,-0.80723 0.61814,-3.35723 1.42322,-5.66667 1.18836,-3.40892 2.19182,-4.19896 5.33333,-4.19896 2.94146,0 3.86957,0.62072 3.86957,2.58798 0,1.42338 -0.64091,2.98408 -1.42424,3.4682 -0.78332,0.48413 -1.10215,1.71953 -0.70851,2.74536 0.39365,1.02581 0.13455,1.86512 -0.57577,1.86512 -0.71031,0 -1.29148,-0.9 -1.29148,-2 0,-2.74859 -3.56387,-2.5213 -5.22654,0.33333 -0.74747,1.28333 -1.37729,1.67287 -1.39958,0.86563 z m 8.36321,-6.53231 c -0.44746,-2.2693 -4.02251,-2.25002 -4.89607,0.0264 -0.63404,1.6523 -0.12708,2.05779 2.16557,1.73212 1.64637,-0.23385 2.8751,-1.0252 2.7305,-1.75853 z m 5.81847,6.44444 c -3.24752,-3.2475 2.14826,-10.28742 7.32086,-9.55158 3.89548,0.55416 4.74875,4.5047 1.70047,7.87301 -2.27524,2.51411 -7.25857,3.44135 -9.02133,1.67857 z m 7.68981,-3.39013 c 2.87804,-4.10899 0.52312,-6.08295 -3.84357,-3.22177 -3.44924,2.26002 -4.1208,3.67069 -2.51291,5.27857 1.70773,1.70775 4.30931,0.86595 6.35648,-2.0568 z m 6.10837,0.61236 c 0.0107,-2.01667 0.6335,-4.56667 1.3828,-5.66667 0.9791,-1.4373 1.11224,-0.5564 0.47328,3.13108 -0.78664,4.53966 -0.60024,5.0771 1.6172,4.66275 1.37847,-0.25757 3.55538,-2.56656 4.83758,-5.13108 1.69898,-3.39815 2.33181,-3.92957 2.33333,-1.95943 0.003,4.21703 -3.78429,8.63002 -7.40687,8.63002 -2.66994,0 -3.25405,-0.66156 -3.23732,-3.66667 z m 12.45062,1.33333 c 2.03118,-7.28338 2.48393,-8.33333 3.59342,-8.33333 0.66994,0 1.59455,1.5 2.0547,3.33333 1.08356,4.3173 2.33752,4.21776 4.19974,-0.33333 l 1.50034,-3.66667 -0.75622,4 c -1.36568,7.2239 -2.53678,8.17227 -4.79864,3.88608 l -2.0507,-3.88608 -1.40716,3.66667 c -1.54386,4.02281 -3.37747,5.06963 -2.33548,1.33333 z m 13.39201,0.20947 c 0.44825,-1.16813 1.17748,-3.56813 1.62052,-5.33333 0.60968,-2.42916 1.7082,-3.20947 4.51833,-3.20947 4.63507,0 6.09666,3.30021 3.33095,7.5212 -2.48807,3.79728 -10.88244,4.70285 -9.4698,1.0216 z m 8.57655,-1.5428 c 1.61393,-3.138 0.53937,-5.66667 -2.40804,-5.66667 -2.39504,0 -4.03155,2.47982 -4.03155,6.10906 0,2.69086 5.00493,2.34704 6.43959,-0.44239 z m 11.77596,-1.26332 c -1.0063,-6.20113 0.12373,-7.70685 1.31476,-1.75183 l 0.88216,4.41079 3.87802,-4.53116 3.87803,-4.53115 -3.59477,5.66667 c -4.40082,6.93728 -5.33443,7.04545 -6.3582,0.73668 z m 10.47993,2.59665 c 0.53943,-1.28333 1.27356,-3.68333 1.63141,-5.33333 0.51912,-2.39356 1.49519,-2.95961 4.82855,-2.80023 4.03007,0.19271 4.04816,0.21943 0.51123,0.75523 -4.01059,0.60756 -5.11255,4.31311 -1.33334,4.4836 1.81331,0.0817 1.88759,0.25392 0.33334,0.77231 -5.69576,1.89965 -5.90459,2.23105 -2,3.17413 l 4,0.96612 -4.47599,0.15776 c -3.7752,0.13307 -4.32243,-0.20757 -3.4952,-2.17559 z m 12.17035,-1.66666 c 0.45108,-2.56667 1.39094,-5.26667 2.08858,-6 0.81979,-0.86172 1.11114,-0.40722 0.82368,1.285 -0.63492,3.73781 4.17502,4.51564 5.13859,0.83096 0.66863,-2.55686 3.21483,-4.07903 2.98188,-1.78263 -0.2826,2.78603 -3.70988,10.00681 -3.79712,8 -0.0604,-1.38996 -1.1528,-2.33333 -2.70185,-2.33333 -1.43023,0 -3.21995,1.05 -3.97715,2.33333 -1.05168,1.78241 -1.18311,1.23149 -0.55661,-2.33333 z m 13.21665,0 c 0.47581,-2.56667 1.44437,-5.26667 2.15235,-6 1.53982,-1.595 0.0347,5.62758 -1.80608,8.66666 -0.78819,1.30128 -0.90916,0.36966 -0.34627,-2.66666 z m 5.36325,1.81213 c -1.48864,-3.87935 2.75614,-8.50491 7.585,-8.26541 l 4.3026,0.21337 -4.33156,0.53764 c -2.61266,0.32428 -4.91038,1.61917 -5.79018,3.26309 -1.59627,2.98264 -0.63871,4.50374 3.45508,5.48842 2.08921,0.50253 1.90356,0.67492 -0.85735,0.79609 -2.14285,0.094 -3.85307,-0.70283 -4.36359,-2.0332 z m 12.8012,-2.81213 c 1.82176,-6.6716 2.88503,-7.55118 1.74414,-1.44283 -0.82324,4.40763 -0.60459,4.94923 2.21441,5.48509 2.47896,0.47123 2.25117,0.63226 -1.098,0.77616 l -4.22587,0.18158 z m 9.0864,3.86562 c 0,-0.62389 0.6587,-3.02389 1.46378,-5.33333 1.25066,-3.58767 2.07562,-4.16988 5.66666,-3.99919 3.8679,0.18386 3.91963,0.24319 0.64907,0.74435 -5.01501,0.76847 -6.11967,4.34268 -1.40433,4.54388 2.68253,0.1144 2.93161,0.30807 0.95816,0.74473 -5.97255,1.32158 -6.69763,2.17871 -2.66667,3.15231 l 4,0.96612 -4.33333,0.15776 c -2.38334,0.0868 -4.33334,-0.35272 -4.33334,-0.97663 z m -235.3995,-3.22392 c -0.35702,-0.9304 0.52261,-6.1804 1.95473,-11.66666 9.11721,-34.92668 14.91436,-55.19932 16.24235,-56.79944 1.20676,-1.45407 7.09717,-1.84227 27.95366,-1.84227 14.5336,0 26.73119,0.49587 27.10576,1.10195 0.37457,0.60606 0.34,2.40606 -0.0768,4 -0.74055,2.83189 -1.27937,2.89852 -23.60235,2.91847 -12.56447,0.0112 -23.52184,0.46123 -24.34972,1 -2.35095,1.52996 -15.72491,50.2547 -14.59914,53.18839 0.53813,1.40235 5.61705,1.79119 23.39585,1.79119 23.40192,0 24.1304,0.18516 21.32827,5.42099 -1.29396,2.4178 -3.04691,2.57901 -28.04185,2.57901 -20.30912,0 -26.81626,-0.40305 -27.31074,-1.69163 z m 24.16286,-23.97504 c 3.68546,-13.20986 4.53085,-16.3442 5.93379,-22 l 1.40564,-5.66666 h 17.94861 17.9486 l -0.028,4.33333 c -0.0333,5.15257 -5.92552,25.86744 -8.10479,28.49331 -1.15858,1.396 -5.81402,1.84002 -19.29196,1.84002 h -17.76488 z m 28.28069,-1.33333 c 2.05635,-2.50061 5.92472,-16.76584 4.96678,-18.31581 -0.45918,-0.74297 -4.85428,-1.35086 -9.76688,-1.35086 h -8.93201 l -2.82992,10.66667 -2.82991,10.66667 h 9.01069 c 5.58869,0 9.53118,-0.63295 10.38125,-1.66667 z m 20.55956,6.659 c -1.62966,-1.96363 4.5727,-27.23921 7.55965,-30.80673 2.57403,-3.07433 33.50341,-3.28898 33.50341,-0.23252 0,3.36109 -4.75711,4.71358 -16.57901,4.71358 -10.5321,0 -11.42099,0.20755 -11.42099,2.66667 0,2.47891 0.88889,2.66667 12.62482,2.66667 11.46271,0 12.54558,0.21478 11.76393,2.33333 -1.40116,3.79761 -3.14549,4.29148 -15.23324,4.31292 -10.80219,0.0192 -11.56068,0.20519 -12.31513,3.02041 -1.61617,6.03071 -1.31652,6.21379 10.82629,6.61476 10.94788,0.36151 11.69291,0.57007 12.09273,3.38524 0.42145,2.96748 0.2534,3 -15.50341,3 -11.15589,0 -16.34588,-0.50174 -17.31905,-1.67433 z m 52.25913,-15.32567 -3.98012,-17 4.58965,-0.4256 c 5.63215,-0.52227 5.92071,-0.0694 8.8504,13.89116 2.7502,13.10512 2.12499,13.22914 14.20216,-2.81714 8.03336,-10.6735 8.74184,-11.26193 13.59052,-11.28779 l 5.11535,-0.0273 -3.78202,5.06312 c -2.0801,2.78471 -7.98201,10.56836 -13.11534,17.29698 l -9.33334,12.23387 -6.07857,0.0364 -6.07856,0.0364 -3.98013,-17 z m 41.69593,15.10643 c -1.05556,-2.75077 5.52783,-27.6237 8.04879,-30.40933 1.81845,-2.00936 4.50709,-2.36376 17.93253,-2.36376 8.83009,0 15.79335,0.54587 15.79335,1.23809 0,3.85169 -4.45882,5.42857 -15.34988,5.42857 -6.13768,0 -11.52578,0.5928 -11.97356,1.31733 -1.08718,1.75908 -4.67656,15.63678 -4.67656,18.08106 0,1.53821 2.30757,1.93495 11.25464,1.93495 11.42782,0 13.39721,0.74985 11.94037,4.54634 -1.13936,2.9691 -31.83632,3.18022 -32.96968,0.22675 z m 43.99689,1.00468 c -1.5453,-1.54529 -0.97564,-6.75992 1.90406,-17.42956 4.55978,-16.89465 3.78784,-16.34821 23.09513,-16.34821 14.03327,0 16.618,0.32502 17.32949,2.17912 1.09588,2.85583 -5.51696,27.14532 -8.20952,30.15421 -1.76273,1.96983 -4.51382,2.33333 -17.65914,2.33333 -8.56412,0 -15.97114,-0.4 -16.46002,-0.88889 z m 28.21339,-9.44444 c 1.78584,-4.59256 4.21376,-13.79006 4.22361,-16 0.005,-1.15989 -2.57816,-1.66667 -8.49597,-1.66667 -5.23051,0 -8.99655,0.64149 -9.78464,1.66667 -1.83011,2.38065 -5.76075,17.17569 -4.92316,18.53093 0.38605,0.62466 4.49372,1.13574 9.12815,1.13574 7.95769,0 8.50549,-0.20388 9.85201,-3.66667 z m 17.82712,8.09799 c 0.34376,-1.33723 2.34584,-9.18132 4.44907,-17.43132 l 3.82406,-15 h 4.78462 4.78462 l 3.9915,12.20462 3.9915,12.20462 10.54794,-12.20462 c 9.45626,-10.9415 11.01909,-12.20462 15.10049,-12.20462 5.25843,0 5.31264,-1.62689 -0.69992,21 l -3.6316,13.66666 h -4.36917 c -2.40304,0 -4.36918,-0.19109 -4.36918,-0.42466 0,-0.23356 0.93586,-3.57602 2.07967,-7.42767 1.14381,-3.85164 1.89381,-7.51351 1.66667,-8.13747 -0.22715,-0.62395 -3.713,2.70103 -7.74634,7.38884 -5.97078,6.93966 -8.08357,8.53051 -11.37116,8.56212 -3.79121,0.0364 -4.18286,-0.44976 -6.41269,-7.96116 -1.30619,-4.4 -2.82075,-8 -3.36569,-8 -0.54494,0 -1.88588,3.45 -2.97987,7.66667 -1.87995,7.24605 -2.23349,7.69033 -6.44429,8.09799 -3.75438,0.36346 -4.35691,0.0488 -3.83023,-2 z"
         id="path4485" />
      <path
         style="fill:#a3a3a5;stroke-width:1.33333"
         d="m -941.1186,-351.848 c -1.66342,-1.66342 -0.8939,-6.57134 3.63503,-23.18375 8.85576,-32.48349 15.41146,-56.78293 18.86557,-69.92736 1.92707,-7.33333 4.44577,-14.38333 5.59712,-15.66667 1.91529,-2.13485 5.92433,-2.33333 47.13019,-2.33333 51.83688,0 48.04379,-1.18342 43.98903,13.72435 -2.6591,9.77649 -5.71815,14.27565 -9.70623,14.27565 -2.18604,0 -2.39921,-0.66335 -1.60674,-5 0.50254,-2.75 1.44262,-6.42298 2.08908,-8.16218 2.44653,-6.582 1.04335,-6.83782 -37.50521,-6.83782 -32.28378,0 -35.81765,0.21914 -37.62707,2.33333 -1.09833,1.28334 -4.43113,11.33334 -7.40621,22.33334 -2.97508,11 -8.22187,30.38064 -11.65953,43.06809 -3.43766,12.68745 -5.91669,23.93745 -5.50895,25 0.62256,1.62236 6.56957,1.92864 37.11652,1.91149 20.00635,-0.0107 37.05569,-0.46122 37.88742,-1 0.83173,-0.53877 2.56079,-4.72958 3.84236,-9.31292 1.99749,-7.14369 2.76968,-8.33333 5.40908,-8.33333 4.64167,0 5.0333,1.92715 2.52161,12.40857 -3.98859,16.64464 -0.47852,15.59143 -51.96215,15.59143 -24.31662,0 -44.61203,-0.4 -45.10092,-0.88889 z m 104.44445,-0.31962 c 0,-0.66468 1.2,-0.8947 2.66666,-0.51116 3.42524,0.89572 3.44848,-1.15062 0.0373,-3.28097 -4.67355,-2.91868 0.29191,-8.50159 5.07733,-5.70869 1.82367,1.06433 1.56585,1.30213 -1.44792,1.33545 -3.07817,0.034 -5.65197,2.66668 -2.66667,2.72763 2.46411,0.0503 4.3498,2.38525 3.56918,4.41952 -0.87844,2.28916 -7.23584,3.18377 -7.23584,1.01822 z m 13.61168,-2.12482 c 0.0912,-2.2 -0.28311,-5.2 -0.83178,-6.66667 -0.9778,-2.61376 -0.95617,-2.61589 1.09004,-0.10747 1.95576,2.39751 2.24302,2.41856 4.54717,0.33334 4.01014,-3.62912 5.03318,-2.5325 1.34414,1.44082 -1.87238,2.01667 -4.05932,4.86667 -4.85986,6.33334 -1.30989,2.39985 -1.43893,2.26645 -1.28971,-1.33334 z m 8.50736,2.19261 c -0.38776,-0.6274 0.77683,-0.85745 2.58797,-0.51124 3.69256,0.70588 4.46101,-1.56188 1.156,-3.41145 -1.17535,-0.65776 -1.91845,-2.33068 -1.65136,-3.71762 0.581,-3.01689 4.79173,-4.12838 6.92997,-1.82929 1.18268,1.27165 0.8709,1.48247 -1.38885,0.93905 -3.29671,-0.79277 -5.38216,2.34987 -2.33525,3.51908 3.38912,1.30052 2.3333,6.15219 -1.33883,6.15219 -1.79006,0 -3.5719,-0.51332 -3.95965,-1.14072 z m 12.54762,0.56085 c 0,-0.31893 0.62326,-2.21914 1.385,-4.2227 1.0439,-2.74564 0.9618,-3.91136 -0.33333,-4.73306 -1.06329,-0.67461 0.0607,-1.03902 2.94833,-0.95596 2.56667,0.0739 3.67739,0.39696 2.46826,0.71804 -1.25379,0.33294 -2.5688,2.55814 -3.06042,5.17867 -0.4741,2.52719 -1.43482,4.59488 -2.13492,4.59488 -0.7001,0 -1.27292,-0.26095 -1.27292,-0.57987 z m 8.47103,-1.75346 c 2.34541,-8.41014 2.28633,-8.33752 6.61883,-8.13356 4.0317,0.18981 4.06049,0.22749 0.57681,0.75522 -4.40652,0.66754 -4.89387,2.99063 -0.66667,3.17791 2.9209,0.12933 2.91471,0.15675 -0.23448,1.03677 -4.62184,1.29158 -4.91285,3.87267 -0.51124,4.53435 3.05332,0.459 2.80484,0.60001 -1.34413,0.76287 -4.25487,0.167 -4.98309,-0.183 -4.43912,-2.13356 z m 11.53641,1.33333 c 0.0208,-2.79341 2.93018,-11 3.89972,-11 0.61334,0 1.45938,1.31631 1.8801,2.92512 0.74817,2.86105 0.82477,2.87096 3.49701,0.45261 1.50264,-1.35986 3.06709,-2.13748 3.47655,-1.72802 1.19053,1.19053 -0.92199,10.35029 -2.38708,10.35029 -0.78135,0 -0.95382,-1.49683 -0.41831,-3.63047 0.90377,-3.6009 0.88867,-3.61006 -1.85545,-1.12668 -2.4547,2.22148 -2.76664,2.25498 -2.76664,0.29714 0,-1.21367 -0.6,-2.20666 -1.33334,-2.20666 -0.73333,0 -1.33333,1.5 -1.33333,3.33334 0,1.83333 -0.6,3.33333 -1.33333,3.33333 -0.73334,0 -1.32999,-0.45 -1.3259,-1 z m 14.65923,-0.35873 c 0,-0.78354 1.41113,-1.00456 3.33333,-0.52212 4.03947,1.01384 4.38728,-1.0887 0.59936,-3.62319 -2.44368,-1.63507 -2.53065,-2.10589 -0.81914,-4.43441 1.63313,-2.2219 2.37857,-2.37138 5.0673,-1.01614 l 3.15248,1.589 -3.2094,-0.31721 c -3.92916,-0.38833 -5.25728,2.40875 -1.59806,3.36564 4.32021,1.12977 2.11838,6.31716 -2.68138,6.31716 -2.11446,0 -3.84449,-0.61143 -3.84449,-1.35873 z m 18.22223,0.46984 c -1.44874,-1.44872 -1.01358,-6.4531 0.7111,-8.17778 1.77782,-1.77781 7.73334,-2.19941 7.73334,-0.54744 0,0.57891 -1.65,1.02891 -3.66667,1 -3.06536,-0.044 -3.73864,0.57755 -4.10551,3.78971 -0.39724,3.47797 -0.11666,3.78068 2.95966,3.19261 1.86916,-0.35732 3.08124,-0.13633 2.69348,0.49107 -0.83539,1.35167 -5.05747,1.51977 -6.3254,0.25183 z m 11.41506,-4.44444 c 1.23539,-4.86703 1.71843,-5.31587 5.5249,-5.13356 4.02988,0.19301 4.04696,0.21858 0.50448,0.75522 -4.42896,0.67094 -4.8107,2.63919 -0.66667,3.43736 2.5722,0.49543 2.47712,0.60372 -0.66667,0.7594 -2.21042,0.10947 -3.66666,0.94072 -3.66666,2.09302 0,1.06165 1.6301,2.15837 3.66666,2.46689 3.03956,0.46045 2.83578,0.58961 -1.19156,0.75523 l -4.85822,0.19977 z m 10.78074,3.16697 c 0.38704,-1.37517 1.09176,-3.85031 1.56602,-5.50031 1.14674,-3.9895 2.56326,-3.78401 4.59547,0.66667 l 1.67421,3.66667 1.85647,-4 1.85648,-4 -0.79048,4.66666 c -1.09947,6.49083 -2.74464,7.73932 -4.65972,3.53618 -1.89028,-4.14872 -3.84981,-4.63135 -3.84981,-0.9482 0,1.42338 -0.66428,2.99853 -1.47618,3.5003 -0.95237,0.5886 -1.22648,0.0251 -0.77246,-1.58797 z m 15.83908,0.71841 c 2.45378,-6.51337 2.47232,-7.681 0.1316,-8.28894 -1.31382,-0.34124 0.0107,-0.62044 2.94457,-0.62044 2.93333,0 4.32303,0.26676 3.0882,0.59278 -1.23483,0.32603 -2.63099,2.34955 -3.10259,4.49671 -0.47158,2.14716 -1.51324,4.30924 -2.31478,4.80461 -0.87886,0.54316 -1.17539,0.1523 -0.74706,-0.98472 z m 8.2726,-0.67592 c 0.44825,-1.16813 1.17748,-3.56813 1.62052,-5.33333 0.65278,-2.60088 1.59982,-3.17159 4.99432,-3.00969 4.03037,0.19222 4.05012,0.22078 0.52212,0.75522 -4.42896,0.67094 -4.8107,2.63919 -0.66667,3.43736 2.5722,0.49543 2.47712,0.60372 -0.66667,0.7594 -2.21042,0.10947 -3.66666,0.94072 -3.66666,2.09302 0,1.06165 1.6301,2.15837 3.66666,2.46689 2.86268,0.43365 2.53904,0.59925 -1.47598,0.75523 -4.20078,0.16318 -4.99339,-0.18922 -4.32764,-1.9241 z m 12.23093,-1.87613 c 1.20461,-6.34277 1.49537,-6.66667 5.98472,-6.66667 3.95641,0 5.46367,2.88939 2.47181,4.73846 -0.79721,0.4927 -1.15338,2.02812 -0.79149,3.41202 0.82407,3.15123 -0.26859,3.23022 -2.52959,0.18286 -1.63502,-2.20368 -1.85041,-2.18516 -3.87648,0.33333 -2.04776,2.54547 -2.10498,2.45456 -1.25897,-2 z m 8.28343,-3.77887 c 0.39836,-1.20866 -0.38944,-1.63605 -2.45779,-1.33333 -1.67424,0.24504 -3.30789,1.24603 -3.63035,2.2244 -0.39836,1.20867 0.38944,1.63605 2.45779,1.33333 1.67424,-0.24504 3.30789,-1.24602 3.63035,-2.2244 z m -149.42532,-10.38016 c -3.58863,-3.58864 2.07199,-10.3514 7.93,-9.47402 3.70666,0.55516 3.69632,0.57094 -0.50184,0.76661 -7.23062,0.33699 -9.43759,8.19977 -2.30155,8.19977 3.42333,0 4.42756,-1.97116 1.58797,-3.11696 -0.96019,-0.38745 -0.63616,-0.71713 0.76444,-0.77777 1.62164,-0.0703 2.28392,0.67164 1.98908,2.22807 -0.4545,2.39922 -7.60183,4.04057 -9.4681,2.1743 z m 12.4218,0.0247 c -0.0223,-0.80723 0.61814,-3.35723 1.42322,-5.66667 1.18836,-3.40892 2.19182,-4.19896 5.33333,-4.19896 2.94146,0 3.86957,0.62072 3.86957,2.58798 0,1.42338 -0.64091,2.98408 -1.42424,3.4682 -0.78332,0.48413 -1.10215,1.71953 -0.70851,2.74536 0.39365,1.02581 0.13455,1.86512 -0.57577,1.86512 -0.71031,0 -1.29148,-0.9 -1.29148,-2 0,-2.74859 -3.56387,-2.5213 -5.22654,0.33333 -0.74747,1.28333 -1.37729,1.67287 -1.39958,0.86563 z m 8.36321,-6.53231 c -0.44746,-2.2693 -4.02251,-2.25002 -4.89607,0.0264 -0.63404,1.6523 -0.12708,2.05779 2.16557,1.73212 1.64637,-0.23385 2.8751,-1.0252 2.7305,-1.75853 z m 5.81847,6.44444 c -3.24752,-3.2475 2.14826,-10.28742 7.32086,-9.55158 3.89548,0.55416 4.74875,4.5047 1.70047,7.87301 -2.27524,2.51411 -7.25857,3.44135 -9.02133,1.67857 z m 7.68981,-3.39013 c 2.87804,-4.10899 0.52312,-6.08295 -3.84357,-3.22177 -3.44924,2.26002 -4.1208,3.67069 -2.51291,5.27857 1.70773,1.70775 4.30931,0.86595 6.35648,-2.0568 z m 6.10837,0.61236 c 0.0107,-2.01667 0.6335,-4.56667 1.3828,-5.66667 0.9791,-1.4373 1.11224,-0.5564 0.47328,3.13108 -0.78664,4.53966 -0.60024,5.0771 1.6172,4.66275 1.37847,-0.25757 3.55538,-2.56656 4.83758,-5.13108 1.69898,-3.39815 2.33181,-3.92957 2.33333,-1.95943 0.003,4.21703 -3.78429,8.63002 -7.40687,8.63002 -2.66994,0 -3.25405,-0.66156 -3.23732,-3.66667 z m 12.45062,1.33333 c 2.03118,-7.28338 2.48393,-8.33333 3.59342,-8.33333 0.66994,0 1.59455,1.5 2.0547,3.33333 1.08356,4.3173 2.33752,4.21776 4.19974,-0.33333 l 1.50034,-3.66667 -0.75622,4 c -1.36568,7.2239 -2.53678,8.17227 -4.79864,3.88608 l -2.0507,-3.88608 -1.40716,3.66667 c -1.54386,4.02281 -3.37747,5.06963 -2.33548,1.33333 z m 13.39201,0.20947 c 0.44825,-1.16813 1.17748,-3.56813 1.62052,-5.33333 0.60968,-2.42916 1.7082,-3.20947 4.51833,-3.20947 4.63507,0 6.09666,3.30021 3.33095,7.5212 -2.48807,3.79728 -10.88244,4.70285 -9.4698,1.0216 z m 8.57655,-1.5428 c 1.61393,-3.138 0.53937,-5.66667 -2.40804,-5.66667 -2.39504,0 -4.03155,2.47982 -4.03155,6.10906 0,2.69086 5.00493,2.34704 6.43959,-0.44239 z m 11.77596,-1.26332 c -1.0063,-6.20113 0.12373,-7.70685 1.31476,-1.75183 l 0.88216,4.41079 3.87802,-4.53116 3.87803,-4.53115 -3.59477,5.66667 c -4.40082,6.93728 -5.33443,7.04545 -6.3582,0.73668 z m 10.47993,2.59665 c 0.53943,-1.28333 1.27356,-3.68333 1.63141,-5.33333 0.51912,-2.39356 1.49519,-2.95961 4.82855,-2.80023 4.03007,0.19271 4.04816,0.21943 0.51123,0.75523 -4.01059,0.60756 -5.11255,4.31311 -1.33334,4.4836 1.81331,0.0817 1.88759,0.25392 0.33334,0.77231 -5.69576,1.89965 -5.90459,2.23105 -2,3.17413 l 4,0.96612 -4.47599,0.15776 c -3.7752,0.13307 -4.32243,-0.20757 -3.4952,-2.17559 z m 12.17035,-1.66666 c 0.45108,-2.56667 1.39094,-5.26667 2.08858,-6 0.81979,-0.86172 1.11114,-0.40722 0.82368,1.285 -0.63492,3.73781 4.17502,4.51564 5.13859,0.83096 0.66863,-2.55686 3.21483,-4.07903 2.98188,-1.78263 -0.2826,2.78603 -3.70988,10.00681 -3.79712,8 -0.0604,-1.38996 -1.1528,-2.33333 -2.70185,-2.33333 -1.43023,0 -3.21995,1.05 -3.97715,2.33333 -1.05168,1.78241 -1.18311,1.23149 -0.55661,-2.33333 z m 13.21665,0 c 0.47581,-2.56667 1.44437,-5.26667 2.15235,-6 1.53982,-1.595 0.0347,5.62758 -1.80608,8.66666 -0.78819,1.30128 -0.90916,0.36966 -0.34627,-2.66666 z m 5.36325,1.81213 c -1.48864,-3.87935 2.75614,-8.50491 7.585,-8.26541 l 4.3026,0.21337 -4.33156,0.53764 c -2.61266,0.32428 -4.91038,1.61917 -5.79018,3.26309 -1.59627,2.98264 -0.63871,4.50374 3.45508,5.48842 2.08921,0.50253 1.90356,0.67492 -0.85735,0.79609 -2.14285,0.094 -3.85307,-0.70283 -4.36359,-2.0332 z m 12.8012,-2.81213 c 1.82176,-6.6716 2.88503,-7.55118 1.74414,-1.44283 -0.82324,4.40763 -0.60459,4.94923 2.21441,5.48509 2.47896,0.47123 2.25117,0.63226 -1.098,0.77616 l -4.22587,0.18158 z m 9.0864,3.86562 c 0,-0.62389 0.6587,-3.02389 1.46378,-5.33333 1.25066,-3.58767 2.07562,-4.16988 5.66666,-3.99919 3.8679,0.18386 3.91963,0.24319 0.64907,0.74435 -5.01501,0.76847 -6.11967,4.34268 -1.40433,4.54388 2.68253,0.1144 2.93161,0.30807 0.95816,0.74473 -5.97255,1.32158 -6.69763,2.17871 -2.66667,3.15231 l 4,0.96612 -4.33333,0.15776 c -2.38334,0.0868 -4.33334,-0.35272 -4.33334,-0.97663 z m -211.23664,-27.19896 c 3.68546,-13.20986 4.53085,-16.3442 5.93379,-22 l 1.40564,-5.66666 h 17.94861 17.9486 l -0.028,4.33333 c -0.0333,5.15257 -5.92552,25.86744 -8.10479,28.49331 -1.15858,1.396 -5.81402,1.84002 -19.29196,1.84002 h -17.76488 z m 28.28069,-1.33333 c 2.05635,-2.50061 5.92472,-16.76584 4.96678,-18.31581 -0.45918,-0.74297 -4.85428,-1.35086 -9.76688,-1.35086 h -8.93201 l -2.82992,10.66667 -2.82991,10.66667 h 9.01069 c 5.58869,0 9.53118,-0.63295 10.38125,-1.66667 z m 20.55956,6.659 c -1.62966,-1.96363 4.5727,-27.23921 7.55965,-30.80673 2.57403,-3.07433 33.50341,-3.28898 33.50341,-0.23252 0,3.36109 -4.75711,4.71358 -16.57901,4.71358 -10.5321,0 -11.42099,0.20755 -11.42099,2.66667 0,2.47891 0.88889,2.66667 12.62482,2.66667 11.46271,0 12.54558,0.21478 11.76393,2.33333 -1.40116,3.79761 -3.14549,4.29148 -15.23324,4.31292 -10.80219,0.0192 -11.56068,0.20519 -12.31513,3.02041 -1.61617,6.03071 -1.31652,6.21379 10.82629,6.61476 10.94788,0.36151 11.69291,0.57007 12.09273,3.38524 0.42145,2.96748 0.2534,3 -15.50341,3 -11.15589,0 -16.34588,-0.50174 -17.31905,-1.67433 z m 52.25913,-15.32567 -3.98012,-17 4.58965,-0.4256 c 5.63215,-0.52227 5.92071,-0.0694 8.8504,13.89116 2.7502,13.10512 2.12499,13.22914 14.20216,-2.81714 8.03336,-10.6735 8.74184,-11.26193 13.59052,-11.28779 l 5.11535,-0.0273 -3.78202,5.06312 c -2.0801,2.78471 -7.98201,10.56836 -13.11534,17.29698 l -9.33334,12.23387 -6.07857,0.0364 -6.07856,0.0364 -3.98013,-17 z m 41.69593,15.10643 c -1.05556,-2.75077 5.52783,-27.6237 8.04879,-30.40933 1.81845,-2.00936 4.50709,-2.36376 17.93253,-2.36376 8.83009,0 15.79335,0.54587 15.79335,1.23809 0,3.85169 -4.45882,5.42857 -15.34988,5.42857 -6.13768,0 -11.52578,0.5928 -11.97356,1.31733 -1.08718,1.75908 -4.67656,15.63678 -4.67656,18.08106 0,1.53821 2.30757,1.93495 11.25464,1.93495 11.42782,0 13.39721,0.74985 11.94037,4.54634 -1.13936,2.9691 -31.83632,3.18022 -32.96968,0.22675 z m 43.99689,1.00468 c -1.5453,-1.54529 -0.97564,-6.75992 1.90406,-17.42956 4.55978,-16.89465 3.78784,-16.34821 23.09513,-16.34821 14.03327,0 16.618,0.32502 17.32949,2.17912 1.09588,2.85583 -5.51696,27.14532 -8.20952,30.15421 -1.76273,1.96983 -4.51382,2.33333 -17.65914,2.33333 -8.56412,0 -15.97114,-0.4 -16.46002,-0.88889 z m 28.21339,-9.44444 c 1.78584,-4.59256 4.21376,-13.79006 4.22361,-16 0.005,-1.15989 -2.57816,-1.66667 -8.49597,-1.66667 -5.23051,0 -8.99655,0.64149 -9.78464,1.66667 -1.83011,2.38065 -5.76075,17.17569 -4.92316,18.53093 0.38605,0.62466 4.49372,1.13574 9.12815,1.13574 7.95769,0 8.50549,-0.20388 9.85201,-3.66667 z m 17.82712,8.09799 c 0.34376,-1.33723 2.34584,-9.18132 4.44907,-17.43132 l 3.82406,-15 h 4.78462 4.78462 l 3.9915,12.20462 3.9915,12.20462 10.54794,-12.20462 c 9.45626,-10.9415 11.01909,-12.20462 15.10049,-12.20462 5.25843,0 5.31264,-1.62689 -0.69992,21 l -3.6316,13.66666 h -4.36917 c -2.40304,0 -4.36918,-0.19109 -4.36918,-0.42466 0,-0.23356 0.93586,-3.57602 2.07967,-7.42767 1.14381,-3.85164 1.89381,-7.51351 1.66667,-8.13747 -0.22715,-0.62395 -3.713,2.70103 -7.74634,7.38884 -5.97078,6.93966 -8.08357,8.53051 -11.37116,8.56212 -3.79121,0.0364 -4.18286,-0.44976 -6.41269,-7.96116 -1.30619,-4.4 -2.82075,-8 -3.36569,-8 -0.54494,0 -1.88588,3.45 -2.97987,7.66667 -1.87995,7.24605 -2.23349,7.69033 -6.44429,8.09799 -3.75438,0.36346 -4.35691,0.0488 -3.83023,-2 z"
         id="path4483" />
      <path
         style="fill:#9a9a9c;stroke-width:1.33333"
         d="m -941.1186,-351.848 c -1.66342,-1.66342 -0.8939,-6.57134 3.63503,-23.18375 8.85576,-32.48349 15.41146,-56.78293 18.86557,-69.92736 1.92707,-7.33333 4.44577,-14.38333 5.59712,-15.66667 1.91529,-2.13485 5.92433,-2.33333 47.13019,-2.33333 51.83688,0 48.04379,-1.18342 43.98903,13.72435 -2.6591,9.77649 -5.71815,14.27565 -9.70623,14.27565 -2.18604,0 -2.39921,-0.66335 -1.60674,-5 0.50254,-2.75 1.44262,-6.42298 2.08908,-8.16218 2.44653,-6.582 1.04335,-6.83782 -37.50521,-6.83782 -32.28378,0 -35.81765,0.21914 -37.62707,2.33333 -1.09833,1.28334 -4.43113,11.33334 -7.40621,22.33334 -2.97508,11 -8.22187,30.38064 -11.65953,43.06809 -3.43766,12.68745 -5.91669,23.93745 -5.50895,25 0.62256,1.62236 6.56957,1.92864 37.11652,1.91149 20.00635,-0.0107 37.05569,-0.46122 37.88742,-1 0.83173,-0.53877 2.56079,-4.72958 3.84236,-9.31292 1.99749,-7.14369 2.76968,-8.33333 5.40908,-8.33333 4.64167,0 5.0333,1.92715 2.52161,12.40857 -3.98859,16.64464 -0.47852,15.59143 -51.96215,15.59143 -24.31662,0 -44.61203,-0.4 -45.10092,-0.88889 z m 104.44445,-0.31962 c 0,-0.66468 1.2,-0.8947 2.66666,-0.51116 3.07824,0.80498 3.6618,-1.61316 0.66667,-2.7625 -1.1,-0.42211 -2,-1.92211 -2,-3.33334 0,-2.9951 3.82241,-4.89541 5.82296,-2.89486 0.94717,0.94716 0.46134,1.37704 -1.55629,1.37704 -2.58336,0 -4.47929,2.6351 -1.93334,2.68708 2.46411,0.0503 4.3498,2.38525 3.56918,4.41952 -0.87844,2.28916 -7.23584,3.18377 -7.23584,1.01822 z m 13.61168,-2.12482 c 0.0912,-2.2 -0.28311,-5.2 -0.83178,-6.66667 -0.9778,-2.61376 -0.95617,-2.61589 1.09004,-0.10747 1.95576,2.39751 2.24302,2.41856 4.54717,0.33334 4.01014,-3.62912 5.03318,-2.5325 1.34414,1.44082 -1.87238,2.01667 -4.05932,4.86667 -4.85986,6.33334 -1.30989,2.39985 -1.43893,2.26645 -1.28971,-1.33334 z m 8.50736,2.19261 c -0.38776,-0.6274 0.77683,-0.85745 2.58797,-0.51124 3.69256,0.70588 4.46101,-1.56188 1.156,-3.41145 -1.17535,-0.65776 -1.91845,-2.33068 -1.65136,-3.71762 0.581,-3.01689 4.79173,-4.12838 6.92997,-1.82929 1.18268,1.27165 0.8709,1.48247 -1.38885,0.93905 -3.29671,-0.79277 -5.38216,2.34987 -2.33525,3.51908 3.38912,1.30052 2.3333,6.15219 -1.33883,6.15219 -1.79006,0 -3.5719,-0.51332 -3.95965,-1.14072 z m 12.54762,0.63955 c 0,-0.36222 0.62326,-2.29784 1.385,-4.3014 1.0439,-2.74564 0.9618,-3.91136 -0.33333,-4.73306 -1.06329,-0.67461 0.0607,-1.03902 2.94833,-0.95596 2.56667,0.0739 3.65636,0.40102 2.42154,0.72704 -1.23483,0.32603 -2.63099,2.34955 -3.10259,4.49671 -0.71097,3.23708 -3.31895,6.98263 -3.31895,4.76667 z m 9.79403,-4.83216 c 0.78296,-2.93334 1.88076,-5.33334 2.43959,-5.33334 0.55881,0 0.68898,0.85226 0.28926,1.89391 -0.47098,1.22737 0.36494,2.10196 2.37519,2.48509 2.78551,0.53088 2.72791,0.60971 -0.56473,0.77276 -2.21043,0.10947 -3.66667,0.94072 -3.66667,2.09302 0,1.06165 1.63011,2.15837 3.66667,2.46689 3.06804,0.46476 2.8806,0.58807 -1.1481,0.75523 l -4.81476,0.19977 z m 10.71947,3 c 0.38126,-1.28334 1.1073,-4.06528 1.61344,-6.1821 l 0.92022,-3.84876 2.24874,2.98122 c 2.12588,2.81836 2.37389,2.85605 4.5399,0.69002 1.26015,-1.26014 2.54412,-2.03824 2.85327,-1.7291 0.89984,0.89985 -0.9384,10.42205 -2.01196,10.42205 -0.53569,0 -0.68724,-1.5 -0.33677,-3.33333 0.7428,-3.88574 -0.6297,-4.32132 -3.15094,-1 -1.6402,2.16068 -1.7744,2.11136 -1.81366,-0.66667 -0.0233,-1.65 -0.6424,-3 -1.37574,-3 -1.15169,0 -1.98148,3.89511 -1.49122,7 0.0868,0.55 -0.48254,1 -1.2653,1 -0.78274,0 -1.11124,-1.05 -0.72998,-2.33333 z m 14.93888,1.19261 c -0.38776,-0.6274 0.77684,-0.85745 2.58797,-0.51124 3.99764,0.7642 4.30392,-1.34636 0.55901,-3.85208 -2.44368,-1.63507 -2.53065,-2.10589 -0.81914,-4.43441 1.64868,-2.24304 2.35298,-2.3772 5.0673,-0.96518 3.10312,1.61427 3.10552,1.63094 0.15382,1.06363 -3.6977,-0.71067 -5.50964,1.74311 -2.52187,3.41516 3.51579,1.96753 2.77524,6.42484 -1.06744,6.42484 -1.79005,0 -3.57191,-0.51332 -3.95965,-1.14072 z m 17.43652,0.25183 c -1.44874,-1.44872 -1.01358,-6.4531 0.7111,-8.17778 1.77782,-1.77781 7.73334,-2.19941 7.73334,-0.54744 0,0.57891 -1.65,1.02891 -3.66667,1 -3.06536,-0.044 -3.73864,0.57755 -4.10551,3.78971 -0.39724,3.47797 -0.11666,3.78068 2.95966,3.19261 1.86916,-0.35732 3.08124,-0.13633 2.69348,0.49107 -0.83539,1.35167 -5.05747,1.51977 -6.3254,0.25183 z m 11.5718,-4.44444 c 1.28548,-4.81603 1.81714,-5.31396 5.48142,-5.13356 4.02586,0.1982 4.02895,0.20416 0.39122,0.75522 -4.42896,0.67094 -4.8107,2.63919 -0.66667,3.43736 2.5722,0.49543 2.47712,0.60372 -0.66667,0.7594 -4.46378,0.22106 -4.97722,3.74368 -0.66666,4.57394 2.27078,0.43737 1.99172,0.62196 -1.1481,0.7594 l -4.14809,0.18157 z m 10.68228,4 c 0.34886,-1.1 0.99584,-3.65 1.43773,-5.66667 0.44189,-2.01667 1.29569,-3.66667 1.89735,-3.66667 0.60165,0 1.8473,1.65 2.76813,3.66667 l 1.67421,3.66667 1.81835,-4 1.81835,-4 -0.72324,4 c -1.4246,7.87894 -1.84128,8.15926 -4.90779,3.30173 -2.87308,-4.55113 -2.93415,-4.57471 -3.37231,-1.30173 -0.24542,1.83333 -1.03097,3.93333 -1.74565,4.66666 -0.85512,0.87743 -1.08255,0.64948 -0.66513,-0.66666 z m 16.26613,-0.66667 c 0.12373,-0.73333 0.63224,-2.63453 1.13003,-4.22489 0.66864,-2.13622 0.28106,-3.05363 -1.48371,-3.512 -1.31381,-0.34124 0.0107,-0.62044 2.94457,-0.62044 2.93334,0 4.35312,0.26096 3.15508,0.5799 -1.19802,0.31894 -3.0316,2.49934 -4.07458,4.84532 -1.04299,2.346 -1.79512,3.66544 -1.67139,2.93211 z m 8.89485,-3.33333 c 1.23539,-4.86703 1.71843,-5.31587 5.5249,-5.13356 4.02988,0.19301 4.04696,0.21858 0.50448,0.75522 -4.42896,0.67094 -4.8107,2.63919 -0.66667,3.43736 2.5722,0.49543 2.47712,0.60372 -0.66667,0.7594 -4.46378,0.22106 -4.97722,3.74368 -0.66666,4.57394 2.24636,0.43266 1.94702,0.62344 -1.19156,0.7594 l -4.19156,0.18157 z m 11.12335,1.33333 c 1.20461,-6.34277 1.49537,-6.66667 5.98472,-6.66667 3.95641,0 5.46367,2.88939 2.47181,4.73846 -0.79721,0.4927 -1.15338,2.02812 -0.79149,3.41202 0.82407,3.15123 -0.26859,3.23022 -2.52959,0.18286 -1.63502,-2.20368 -1.85041,-2.18516 -3.87648,0.33333 -2.04776,2.54547 -2.10498,2.45456 -1.25897,-2 z m 8.28343,-3.77887 c 0.39836,-1.20866 -0.38944,-1.63605 -2.45779,-1.33333 -1.67424,0.24504 -3.30789,1.24603 -3.63035,2.2244 -0.39836,1.20867 0.38944,1.63605 2.45779,1.33333 1.67424,-0.24504 3.30789,-1.24602 3.63035,-2.2244 z m -149.42532,-10.38016 c -3.58863,-3.58864 2.07199,-10.3514 7.93,-9.47402 3.70666,0.55516 3.69632,0.57094 -0.50184,0.76661 -7.23062,0.33699 -9.43759,8.19977 -2.30155,8.19977 3.42333,0 4.42756,-1.97116 1.58797,-3.11696 -0.96019,-0.38745 -0.63616,-0.71713 0.76444,-0.77777 1.62164,-0.0703 2.28392,0.67164 1.98908,2.22807 -0.4545,2.39922 -7.60183,4.04057 -9.4681,2.1743 z m 12.4218,0.0247 c -0.0223,-0.80723 0.61814,-3.35723 1.42322,-5.66667 1.18836,-3.40892 2.19182,-4.19896 5.33333,-4.19896 2.94146,0 3.86957,0.62072 3.86957,2.58798 0,1.42338 -0.64091,2.98408 -1.42424,3.4682 -0.78332,0.48413 -1.10215,1.71953 -0.70851,2.74536 0.39365,1.02581 0.13455,1.86512 -0.57577,1.86512 -0.71031,0 -1.29148,-0.9 -1.29148,-2 0,-2.74859 -3.56387,-2.5213 -5.22654,0.33333 -0.74747,1.28333 -1.37729,1.67287 -1.39958,0.86563 z m 8.36321,-6.53231 c -0.44746,-2.2693 -4.02251,-2.25002 -4.89607,0.0264 -0.63404,1.6523 -0.12708,2.05779 2.16557,1.73212 1.64637,-0.23385 2.8751,-1.0252 2.7305,-1.75853 z m 5.81847,6.44444 c -3.24752,-3.2475 2.14826,-10.28742 7.32086,-9.55158 3.89548,0.55416 4.74875,4.5047 1.70047,7.87301 -2.27524,2.51411 -7.25857,3.44135 -9.02133,1.67857 z m 7.68981,-3.39013 c 2.87804,-4.10899 0.52312,-6.08295 -3.84357,-3.22177 -3.44924,2.26002 -4.1208,3.67069 -2.51291,5.27857 1.70773,1.70775 4.30931,0.86595 6.35648,-2.0568 z m 6.10837,0.61236 c 0.0107,-2.01667 0.6335,-4.56667 1.3828,-5.66667 0.9791,-1.4373 1.11224,-0.5564 0.47328,3.13108 -0.78664,4.53966 -0.60024,5.0771 1.6172,4.66275 1.37847,-0.25757 3.55538,-2.56656 4.83758,-5.13108 1.69898,-3.39815 2.33181,-3.92957 2.33333,-1.95943 0.003,4.21703 -3.78429,8.63002 -7.40687,8.63002 -2.66994,0 -3.25405,-0.66156 -3.23732,-3.66667 z m 12.45062,1.33333 c 2.03118,-7.28338 2.48393,-8.33333 3.59342,-8.33333 0.66994,0 1.59455,1.5 2.0547,3.33333 1.08356,4.3173 2.33752,4.21776 4.19974,-0.33333 l 1.50034,-3.66667 -0.75622,4 c -1.36568,7.2239 -2.53678,8.17227 -4.79864,3.88608 l -2.0507,-3.88608 -1.40716,3.66667 c -1.54386,4.02281 -3.37747,5.06963 -2.33548,1.33333 z m 13.39201,0.20947 c 0.44825,-1.16813 1.17748,-3.56813 1.62052,-5.33333 0.60968,-2.42916 1.7082,-3.20947 4.51833,-3.20947 4.63507,0 6.09666,3.30021 3.33095,7.5212 -2.48807,3.79728 -10.88244,4.70285 -9.4698,1.0216 z m 8.57655,-1.5428 c 1.61393,-3.138 0.53937,-5.66667 -2.40804,-5.66667 -2.39504,0 -4.03155,2.47982 -4.03155,6.10906 0,2.69086 5.00493,2.34704 6.43959,-0.44239 z m 11.77596,-1.26332 c -1.0063,-6.20113 0.12373,-7.70685 1.31476,-1.75183 l 0.88216,4.41079 3.87802,-4.53116 3.87803,-4.53115 -3.59477,5.66667 c -4.40082,6.93728 -5.33443,7.04545 -6.3582,0.73668 z m 10.47993,2.59665 c 0.53943,-1.28333 1.27356,-3.68333 1.63141,-5.33333 0.51912,-2.39356 1.49519,-2.95961 4.82855,-2.80023 4.03007,0.19271 4.04816,0.21943 0.51123,0.75523 -4.01059,0.60756 -5.11255,4.31311 -1.33334,4.4836 1.81331,0.0817 1.88759,0.25392 0.33334,0.77231 -5.69576,1.89965 -5.90459,2.23105 -2,3.17413 l 4,0.96612 -4.47599,0.15776 c -3.7752,0.13307 -4.32243,-0.20757 -3.4952,-2.17559 z m 12.1328,-1 c 0.47569,-2.2 1.41259,-4.9 2.08199,-6 0.87122,-1.43168 0.984,-1.14753 0.39688,1 -0.69582,2.54508 -0.3011,3 2.603,3 2.09162,0 3.42318,-0.74736 3.42318,-1.9213 0,-1.05672 0.53499,-2.25196 1.18887,-2.65608 0.65388,-0.40412 0.52727,1.81046 -0.28137,4.92132 -0.84148,3.2372 -1.67683,4.6582 -1.95331,3.32273 -0.26568,-1.28333 -1.60924,-2.33333 -2.98569,-2.33333 -1.37647,0 -3.14071,1.05 -3.92056,2.33333 -1.12482,1.85101 -1.23912,1.50651 -0.55299,-1.66667 z m 13.33333,0 c 0.4757,-2.2 1.39219,-4.9 2.03663,-6 0.7498,-1.27981 0.86028,-0.55964 0.30681,2 -0.47569,2.2 -1.39218,4.9 -2.03662,6 -0.7498,1.27982 -0.86028,0.55964 -0.30682,-2 z m 5.28412,1.14547 c -1.48864,-3.87935 2.75614,-8.50491 7.585,-8.26541 l 4.3026,0.21337 -4.33156,0.53764 c -2.61266,0.32428 -4.91038,1.61917 -5.79018,3.26309 -1.59627,2.98264 -0.63871,4.50374 3.45508,5.48842 2.08921,0.50253 1.90356,0.67492 -0.85735,0.79609 -2.14285,0.094 -3.85307,-0.70283 -4.36359,-2.0332 z m 12.8012,-2.81213 c 1.82176,-6.6716 2.88503,-7.55118 1.74414,-1.44283 -0.82324,4.40763 -0.60459,4.94923 2.21441,5.48509 2.47896,0.47123 2.25117,0.63226 -1.098,0.77616 l -4.22587,0.18158 z m 9.0864,3.86562 c 0,-0.62389 0.6587,-3.02389 1.46378,-5.33333 1.25066,-3.58767 2.07562,-4.16988 5.66666,-3.99919 3.8679,0.18386 3.91963,0.24319 0.64907,0.74435 -5.01501,0.76847 -6.11967,4.34268 -1.40433,4.54388 2.68253,0.1144 2.93161,0.30807 0.95816,0.74473 -5.97255,1.32158 -6.69763,2.17871 -2.66667,3.15231 l 4,0.96612 -4.33333,0.15776 c -2.38334,0.0868 -4.33334,-0.35272 -4.33334,-0.97663 z m -211.23664,-27.19896 c 3.68546,-13.20986 4.53085,-16.3442 5.93379,-22 l 1.40564,-5.66666 h 17.94861 17.9486 l -0.028,4.33333 c -0.0333,5.15257 -5.92552,25.86744 -8.10479,28.49331 -1.15858,1.396 -5.81402,1.84002 -19.29196,1.84002 h -17.76488 z m 28.28069,-1.33333 c 2.05635,-2.50061 5.92472,-16.76584 4.96678,-18.31581 -0.45918,-0.74297 -4.85428,-1.35086 -9.76688,-1.35086 h -8.93201 l -2.82992,10.66667 -2.82991,10.66667 h 9.01069 c 5.58869,0 9.53118,-0.63295 10.38125,-1.66667 z m 20.55956,6.659 c -1.62966,-1.96363 4.5727,-27.23921 7.55965,-30.80673 2.57403,-3.07433 33.50341,-3.28898 33.50341,-0.23252 0,3.36109 -4.75711,4.71358 -16.57901,4.71358 -10.5321,0 -11.42099,0.20755 -11.42099,2.66667 0,2.47891 0.88889,2.66667 12.62482,2.66667 11.46271,0 12.54558,0.21478 11.76393,2.33333 -1.40116,3.79761 -3.14549,4.29148 -15.23324,4.31292 -10.80219,0.0192 -11.56068,0.20519 -12.31513,3.02041 -1.61617,6.03071 -1.31652,6.21379 10.82629,6.61476 10.94788,0.36151 11.69291,0.57007 12.09273,3.38524 0.42145,2.96748 0.2534,3 -15.50341,3 -11.15589,0 -16.34588,-0.50174 -17.31905,-1.67433 z m 52.25913,-15.32567 -3.98012,-17 4.58965,-0.4256 c 5.63215,-0.52227 5.92071,-0.0694 8.8504,13.89116 2.7502,13.10512 2.12499,13.22914 14.20216,-2.81714 8.03336,-10.6735 8.74184,-11.26193 13.59052,-11.28779 l 5.11535,-0.0273 -3.78202,5.06312 c -2.0801,2.78471 -7.98201,10.56836 -13.11534,17.29698 l -9.33334,12.23387 -6.07857,0.0364 -6.07856,0.0364 -3.98013,-17 z m 41.69593,15.10643 c -1.05556,-2.75077 5.52783,-27.6237 8.04879,-30.40933 1.81845,-2.00936 4.50709,-2.36376 17.93253,-2.36376 8.83009,0 15.79335,0.54587 15.79335,1.23809 0,3.85169 -4.45882,5.42857 -15.34988,5.42857 -6.13768,0 -11.52578,0.5928 -11.97356,1.31733 -1.08718,1.75908 -4.67656,15.63678 -4.67656,18.08106 0,1.53821 2.30757,1.93495 11.25464,1.93495 11.42782,0 13.39721,0.74985 11.94037,4.54634 -1.13936,2.9691 -31.83632,3.18022 -32.96968,0.22675 z m 43.99689,1.00468 c -1.5453,-1.54529 -0.97564,-6.75992 1.90406,-17.42956 4.55978,-16.89465 3.78784,-16.34821 23.09513,-16.34821 14.03327,0 16.618,0.32502 17.32949,2.17912 1.09588,2.85583 -5.51696,27.14532 -8.20952,30.15421 -1.76273,1.96983 -4.51382,2.33333 -17.65914,2.33333 -8.56412,0 -15.97114,-0.4 -16.46002,-0.88889 z m 28.21339,-9.44444 c 1.78584,-4.59256 4.21376,-13.79006 4.22361,-16 0.005,-1.15989 -2.57816,-1.66667 -8.49597,-1.66667 -5.23051,0 -8.99655,0.64149 -9.78464,1.66667 -1.83011,2.38065 -5.76075,17.17569 -4.92316,18.53093 0.38605,0.62466 4.49372,1.13574 9.12815,1.13574 7.95769,0 8.50549,-0.20388 9.85201,-3.66667 z m 17.82712,8.09799 c 0.34376,-1.33723 2.34584,-9.18132 4.44907,-17.43132 l 3.82406,-15 h 4.78462 4.78462 l 3.9915,12.20462 3.9915,12.20462 10.54794,-12.20462 c 9.45626,-10.9415 11.01909,-12.20462 15.10049,-12.20462 5.25843,0 5.31264,-1.62689 -0.69992,21 l -3.6316,13.66666 h -4.36917 c -2.40304,0 -4.36918,-0.19109 -4.36918,-0.42466 0,-0.23356 0.93586,-3.57602 2.07967,-7.42767 1.14381,-3.85164 1.89381,-7.51351 1.66667,-8.13747 -0.22715,-0.62395 -3.713,2.70103 -7.74634,7.38884 -5.97078,6.93966 -8.08357,8.53051 -11.37116,8.56212 -3.79121,0.0364 -4.18286,-0.44976 -6.41269,-7.96116 -1.30619,-4.4 -2.82075,-8 -3.36569,-8 -0.54494,0 -1.88588,3.45 -2.97987,7.66667 -1.87995,7.24605 -2.23349,7.69033 -6.44429,8.09799 -3.75438,0.36346 -4.35691,0.0488 -3.83023,-2 z"
         id="path4481" />
      <path
         style="fill:#252525;stroke-width:1.33333"
         d="m -941.1186,-351.848 c -1.66342,-1.66342 -0.8939,-6.57134 3.63503,-23.18375 8.85576,-32.48349 15.41146,-56.78293 18.86557,-69.92736 1.92707,-7.33333 4.44577,-14.38333 5.59712,-15.66667 1.91529,-2.13485 5.92433,-2.33333 47.13019,-2.33333 51.83688,0 48.04379,-1.18342 43.98903,13.72435 -2.6591,9.77649 -5.71815,14.27565 -9.70623,14.27565 -2.18604,0 -2.39921,-0.66335 -1.60674,-5 0.50254,-2.75 1.44262,-6.42298 2.08908,-8.16218 2.44653,-6.582 1.04335,-6.83782 -37.50521,-6.83782 -32.28378,0 -35.81765,0.21914 -37.62707,2.33333 -1.09833,1.28334 -4.43113,11.33334 -7.40621,22.33334 -2.97508,11 -8.22187,30.38064 -11.65953,43.06809 -3.43766,12.68745 -5.91669,23.93745 -5.50895,25 0.62256,1.62236 6.56957,1.92864 37.11652,1.91149 20.00635,-0.0107 37.05569,-0.46122 37.88742,-1 0.83173,-0.53877 2.56079,-4.72958 3.84236,-9.31292 1.99749,-7.14369 2.76968,-8.33333 5.40908,-8.33333 4.64167,0 5.0333,1.92715 2.52161,12.40857 -3.98859,16.64464 -0.47852,15.59143 -51.96215,15.59143 -24.31662,0 -44.61203,-0.4 -45.10092,-0.88889 z m 47.87447,-44.77778 c 3.68546,-13.20986 4.53085,-16.3442 5.93379,-22 l 1.40564,-5.66666 h 17.94861 17.9486 l -0.028,4.33333 c -0.0333,5.15257 -5.92552,25.86744 -8.10479,28.49331 -1.15858,1.396 -5.81402,1.84002 -19.29196,1.84002 h -17.76488 z m 28.28069,-1.33333 c 2.05635,-2.50061 5.92472,-16.76584 4.96678,-18.31581 -0.45918,-0.74297 -4.85428,-1.35086 -9.76688,-1.35086 h -8.93201 l -2.82992,10.66667 -2.82991,10.66667 h 9.01069 c 5.58869,0 9.53118,-0.63295 10.38125,-1.66667 z m 20.55956,6.659 c -1.62966,-1.96363 4.5727,-27.23921 7.55965,-30.80673 2.57403,-3.07433 33.50341,-3.28898 33.50341,-0.23252 0,3.36109 -4.75711,4.71358 -16.57901,4.71358 -10.5321,0 -11.42099,0.20755 -11.42099,2.66667 0,2.47891 0.88889,2.66667 12.62482,2.66667 11.46271,0 12.54558,0.21478 11.76393,2.33333 -1.40116,3.79761 -3.14549,4.29148 -15.23324,4.31292 -10.80219,0.0192 -11.56068,0.20519 -12.31513,3.02041 -1.61617,6.03071 -1.31652,6.21379 10.82629,6.61476 10.94788,0.36151 11.69291,0.57007 12.09273,3.38524 0.42145,2.96748 0.2534,3 -15.50341,3 -11.15589,0 -16.34588,-0.50174 -17.31905,-1.67433 z m 52.25913,-15.32567 -3.98012,-17 4.58965,-0.4256 c 5.63215,-0.52227 5.92071,-0.0694 8.8504,13.89116 2.7502,13.10512 2.12499,13.22914 14.20216,-2.81714 8.03336,-10.6735 8.74184,-11.26193 13.59052,-11.28779 l 5.11535,-0.0273 -3.78202,5.06312 c -2.0801,2.78471 -7.98201,10.56836 -13.11534,17.29698 l -9.33334,12.23387 -6.07857,0.0364 -6.07856,0.0364 -3.98013,-17 z m 41.69593,15.10643 c -1.05556,-2.75077 5.52783,-27.6237 8.04879,-30.40933 1.81845,-2.00936 4.50709,-2.36376 17.93253,-2.36376 8.83009,0 15.79335,0.54587 15.79335,1.23809 0,3.85169 -4.45882,5.42857 -15.34988,5.42857 -6.13768,0 -11.52578,0.5928 -11.97356,1.31733 -1.08718,1.75908 -4.67656,15.63678 -4.67656,18.08106 0,1.53821 2.30757,1.93495 11.25464,1.93495 11.42782,0 13.39721,0.74985 11.94037,4.54634 -1.13936,2.9691 -31.83632,3.18022 -32.96968,0.22675 z m 43.99689,1.00468 c -1.5453,-1.54529 -0.97564,-6.75992 1.90406,-17.42956 4.55978,-16.89465 3.78784,-16.34821 23.09513,-16.34821 14.03327,0 16.618,0.32502 17.32949,2.17912 1.09588,2.85583 -5.51696,27.14532 -8.20952,30.15421 -1.76273,1.96983 -4.51382,2.33333 -17.65914,2.33333 -8.56412,0 -15.97114,-0.4 -16.46002,-0.88889 z m 28.21339,-9.44444 c 1.78584,-4.59256 4.21376,-13.79006 4.22361,-16 0.005,-1.15989 -2.57816,-1.66667 -8.49597,-1.66667 -5.23051,0 -8.99655,0.64149 -9.78464,1.66667 -1.83011,2.38065 -5.76075,17.17569 -4.92316,18.53093 0.38605,0.62466 4.49372,1.13574 9.12815,1.13574 7.95769,0 8.50549,-0.20388 9.85201,-3.66667 z m 17.82712,8.09799 c 0.34376,-1.33723 2.34584,-9.18132 4.44907,-17.43132 l 3.82406,-15 h 4.78462 4.78462 l 3.9915,12.20462 3.9915,12.20462 10.54794,-12.20462 c 9.45626,-10.9415 11.01909,-12.20462 15.10049,-12.20462 5.25843,0 5.31264,-1.62689 -0.69992,21 l -3.6316,13.66666 h -4.36917 c -2.40304,0 -4.36918,-0.19109 -4.36918,-0.42466 0,-0.23356 0.93586,-3.57602 2.07967,-7.42767 1.14381,-3.85164 1.89381,-7.51351 1.66667,-8.13747 -0.22715,-0.62395 -3.713,2.70103 -7.74634,7.38884 -5.97078,6.93966 -8.08357,8.53051 -11.37116,8.56212 -3.79121,0.0364 -4.18286,-0.44976 -6.41269,-7.96116 -1.30619,-4.4 -2.82075,-8 -3.36569,-8 -0.54494,0 -1.88588,3.45 -2.97987,7.66667 -1.87995,7.24605 -2.23349,7.69033 -6.44429,8.09799 -3.75438,0.36346 -4.35691,0.0488 -3.83023,-2 z"
         id="path4479" />
      <path
         style="fill:#000000;stroke-width:1.33333"
         d="m -941.39429,-352.37896 c -1.01119,-1.63615 0.0427,-8.34678 2.81336,-17.91348 1.06191,-3.66667 4.25887,-15.36667 7.10436,-26 2.84548,-10.63334 7.74307,-28.93334 10.88352,-40.66667 3.14046,-11.73333 6.59993,-22.38333 7.68772,-23.66667 1.8103,-2.13571 5.72952,-2.33333 46.27457,-2.33333 34.02008,0 44.62052,0.39012 45.69233,1.68156 2.16614,2.61004 -2.10504,19.28114 -6.14504,23.98511 -2.03169,2.36559 -6.92402,3.24315 -6.92402,1.242 0,-0.60023 0.93648,-4.2448 2.08107,-8.09904 3.31564,-11.16497 4.52221,-10.80963 -36.70434,-10.80963 -32.29416,0 -35.81451,0.21846 -37.59983,2.33333 -2.21784,2.62724 -3.0211,5.15308 -10.28252,32.33334 -2.84078,10.63333 -7.33915,27.45881 -9.99638,37.38994 -5.46936,20.44119 -5.65386,22.00912 -2.72228,23.13407 1.15998,0.44513 17.65998,0.80932 36.66667,0.80932 39.70972,0 38.06699,0.49439 41.15707,-12.38651 1.54601,-6.44449 2.28366,-7.61349 4.80418,-7.61349 4.33178,0 4.78052,2.80056 2.12454,13.25911 -4.01824,15.82277 -0.22706,14.74089 -51.65614,14.74089 -29.95212,0 -44.66662,-0.46161 -45.25884,-1.41985 z m 51.16852,-54.58015 4.68718,-17.33333 h 17.14073 c 14.5243,0 17.26643,0.32756 17.96421,2.14593 1.20847,3.14924 -5.13504,27.41527 -7.88589,30.16612 -2.00608,2.00608 -4.88865,2.35461 -19.47402,2.35461 h -17.1194 z m 28.69747,0.22137 c 3.18355,-11.7509 2.67768,-12.40908 -9.14585,-11.8995 l -8,0.3448 -1.76422,6.66666 c -0.97032,3.66667 -2.26259,8.64087 -2.87172,11.05378 l -1.10749,4.3871 10.12003,-0.3871 10.12004,-0.38711 z m 17.12371,15.43676 c -1.07639,-1.29696 -0.60475,-4.69022 1.80304,-12.97212 1.7934,-6.16865 3.26073,-12.20354 3.26073,-13.41088 0,-5.27277 4.13096,-6.60846 20.43832,-6.60846 8.55892,0 15.55249,0.45 15.54127,1 -0.0685,3.35639 -2.92008,4.25171 -14.69167,4.61282 -11.93755,0.3662 -12.64433,0.54969 -13.04732,3.38718 -0.4163,2.9312 -0.13444,3 12.29149,3 11.55103,0 12.63859,0.21402 11.85666,2.33333 -1.40132,3.79807 -3.14554,4.29148 -15.2461,4.31292 -12.08702,0.0214 -13.14265,0.56312 -13.14265,6.74421 0,2.2318 1.27537,2.54783 11.66667,2.89096 10.64936,0.35166 11.66666,0.61776 11.66666,3.05191 0,2.49195 -1.01353,2.69116 -15.4697,3.04061 -11.54222,0.279 -15.83979,-0.072 -16.9274,-1.38248 z m 53.37093,-11.3248 c -5.34032,-23.35536 -5.34184,-21.66666 0.0196,-21.66666 5.10907,0 4.65869,-0.89812 9.19348,18.33333 0.90783,3.85 2.00464,7 2.43735,7 0.4327,0 4.19257,-4.68284 8.35526,-10.40632 9.7589,-13.41797 11.81538,-15.2159 16.79959,-14.68746 l 4.02849,0.42711 -12.90377,16.96084 -12.90379,16.96083 -6.02682,0.0392 -6.02684,0.0392 -2.97251,-13 z m 41.91507,12.11111 c -1.52612,-1.52611 -0.92584,-7.40285 1.80516,-17.67238 4.36008,-16.39552 3.95086,-16.10539 22.71693,-16.10539 15.603,0 15.97936,0.0688 14.58901,2.66666 -1.2332,2.30425 -2.79176,2.66667 -11.4679,2.66667 -12.75671,0 -14.5321,1.0243 -17.10287,9.86747 -3.73943,12.86317 -3.7852,12.7992 9.15875,12.7992 11.42782,0 13.39721,0.74985 11.94037,4.54634 -0.67691,1.76398 -3.32928,2.12032 -15.78211,2.12032 -8.23265,0 -15.36846,-0.4 -15.85734,-0.88889 z m 42.18569,-1.3046 c -0.86741,-2.26043 3.9186,-22.55297 6.71543,-28.47317 1.54212,-3.26431 1.92317,-3.34104 18.40153,-3.70533 19.46123,-0.43023 19.19319,-0.6141 16.26319,11.15583 -1.0793,4.33556 -2.55787,10.27396 -3.28574,13.19647 -2.3574,9.46545 -3.5421,10.01969 -21.41749,10.01969 -13.46657,0 -15.96111,-0.3281 -16.67692,-2.19349 z m 30.48519,-11.80651 c 4.19394,-12.55804 3.09805,-15.35434 -6.00216,-15.31512 -9.57207,0.0412 -11.40632,2.21158 -14.74834,17.45051 -1.0662,4.86165 -0.0763,5.35849 9.80088,4.91923 l 8.72318,-0.38795 z m 15.77356,13.43448 c 0,-0.40396 1.57506,-6.59197 3.50014,-13.75114 1.92507,-7.15917 3.79318,-14.66667 4.15132,-16.68334 0.57144,-3.21758 1.252,-3.66666 5.55664,-3.66666 h 4.90544 l 3.76712,12.08471 3.76712,12.08471 3.26802,-3.07013 c 1.7974,-1.68859 6.64708,-7.1267 10.77705,-12.08472 6.49043,-7.79172 8.1058,-9.01457 11.90809,-9.01457 5.24155,0 5.17871,-1.03697 0.88874,14.66666 -1.90319,6.96667 -3.76004,14.31667 -4.12634,16.33334 -0.57249,3.15184 -1.30356,3.66666 -5.20674,3.66666 -4.27975,0 -4.48974,-0.21074 -3.65344,-3.66666 0.48802,-2.01667 1.39945,-5.05572 2.02541,-6.75347 0.62595,-1.69773 1.13736,-4.09773 1.13647,-5.33333 -0.001,-2.30325 0.003,-2.30783 -11.35686,10.85358 -3.47232,4.02295 -5.18745,5.00858 -8.12074,4.66667 -3.28063,-0.38239 -4.0318,-1.41516 -6.37647,-8.76679 -1.46176,-4.58333 -2.99467,-8.33333 -3.40645,-8.33333 -0.41179,0 -1.65079,3.75 -2.75334,8.33333 -1.90929,7.93699 -2.21025,8.3532 -6.3279,8.75115 -2.3778,0.2298 -4.32328,0.0873 -4.32328,-0.31667 z"
         id="path4477" />
    </g>
  </g>
</svg>
